<?xml version="1.0" encoding="utf-8"?><svg id="レイヤー_1" data-name="レイヤー 1" xmlns="http://www.w3.org/2000/svg" viewBox="0 0 600 150"><defs><style>.cls-1{fill:#e50012;}</style></defs><title>news</title><path class="cls-1" d="M245.28,5.58q-.5,9.67-1.4,33.74Q243.34,57,243,80.05q-4.69-4.93-14.32-14.69-4.16-3.88-12.42-11.63l-.36,25.36H204.33q-.3-9.7-1.33-36.66-.9-21.83-1.83-36.85h18l13.35,16.85q0-5.79-.15-9.1-.1-2.91-.43-7.75Z"/><path class="cls-1" d="M286,5.58l-1.55,30.3c-.88-.2-2.8-.53-5.74-1q-3-.37-6.6-.48l-.54,9.14q3.94.15,12.88-.24c-.26,1.18-.68,3.39-1.25,6.61q-.51,2.91-.9,6.75a38.31,38.31,0,0,0-5.2-.86c-1.3-.1-3.21-.13-5.75-.1l-.36,10.67q2.7,0,9.91-.62a26.23,26.23,0,0,0,4.49-1.15c-.19,1-.64,3.37-1.33,7.13-.34,2-.74,4.41-1.22,7.37H250.67l-1-37.52q-.28-12.87-1.4-36Z"/><path class="cls-1" d="M363,5.58q-3.17,11.82-9.84,38.82-2.91,12.52-7.72,34.69H332.54q-1.8-10.05-6.46-34.31-3,12.48-7.94,34.31h-12.7q-2.29-10.95-7.86-35.8-3.27-13.63-9.66-37.71H312.4q.75,4.7,2.66,15.17l3.8,19.15c.7-2.65,1.72-7.26,3.09-13.83q-1.69-8.38-4.31-20.49H339.9q.57,4.61,1.9,14.89,1,6.84,2.65,19.43l3.7-19.53q1-5.55,2.33-14.79Z"/><path class="cls-1" d="M399,35.68a15.19,15.19,0,0,0-4-.81,4.13,4.13,0,0,0-3.09,1.53,6.93,6.93,0,0,0-1.69,4.84q0,2.3,3.09,8.85a28.56,28.56,0,0,1,3.09,12.06q0,8-4.56,13.11a13.75,13.75,0,0,1-10.73,4.93c-3.93,0-6.82-.36-8.69-1.1-.22-1.46-.59-3.86-1.11-7.18q-.51-2.67-1.4-7.13a21.72,21.72,0,0,0,5.31,1.29c3.56,0,5.35-1.8,5.35-5.4a12.06,12.06,0,0,0-2.16-7q-3.51-4.11-7-8.28a28.54,28.54,0,0,1-6.82-19.09q0-11.54,6.46-17.47,5.64-5.17,15-5.17A40.57,40.57,0,0,1,397.9,5.68Z"/><path class="cls-1" d="M158.5,135.09a8.58,8.58,0,0,0,4.61,1.63,3,3,0,0,0,2.6-1.22,6.74,6.74,0,0,0,1.15-3.64c0-1.53-1-2.31-3.05-2.31a30.64,30.64,0,0,0-8.24,1.6c0,1.15,0,1.89,0,4.12,0,.9,0,1.56,0,1.79a3.67,3.67,0,0,1-1.3,3.19,7,7,0,0,1-3.38,1.6c-1,0-2.38-.89-4.09-2.6-2-2-3.45-4.2-3.45-5.2,0-1.45,2.37-3.12,7.5-5.24l0-5.31a25.28,25.28,0,0,1-2.82.18,16.94,16.94,0,0,1-3.16-.3l-.29-4.49a13.67,13.67,0,0,0,3.93.52,18.62,18.62,0,0,0,2.31-.15l-.11-7.28,4.86.11v6.13a29.49,29.49,0,0,0,4.05-1.6l1.42,4.09a29.28,29.28,0,0,1-5.5,1.93v4.61a36.58,36.58,0,0,1,8.77-1.38c5,0,7.72,2.27,7.72,6.36,0,5.53-3.27,9.14-8.25,9.14a8.43,8.43,0,0,1-6.27-2.42Zm-9.81-.3c0,.56,1.64,2.12,2.19,2.12s.45-.26.45-3.87C149.29,134.08,148.69,134.49,148.69,134.79ZM171,125c-.11-.11-.15-.15-.38-.41s-.59-.63-.81-.85A18.37,18.37,0,0,0,167,125l-2.56-2.27c.63-.41,1.75-1.08,2.53-1.56a38.43,38.43,0,0,0-3.83-2.79l3-3a30.6,30.6,0,0,1,8.36,6.35Z"/><path class="cls-1" d="M187.46,113.13a2.73,2.73,0,0,1,1,2.23,35.07,35.07,0,0,1-.38,4.31,126.36,126.36,0,0,0-.85,13.75c0,2.86.67,3.6,3.23,3.6,4.28,0,8.25-1.93,11.82-5.68l1.19,5.57a19.89,19.89,0,0,1-13.38,5.42c-5.8,0-8.06-2.19-8.06-7.87,0-2.83,0-2.83.85-17a10,10,0,0,0,0-1c0-1.71-.34-2.49-1.45-3.34Z"/><path class="cls-1" d="M218,119.37a91.44,91.44,0,0,0-1.07,9.77,24.43,24.43,0,0,1,9.88-2.6c4.9,0,7.91,2.46,7.91,6.47,0,5.53-5,9.18-13.93,10.1l-3-4.31A22.06,22.06,0,0,0,226,137c2.08-1,3.05-2.19,3.05-3.9,0-1.52-1.08-2.45-2.86-2.45-3,0-7.17,1.75-11.37,4.87l-3-1.45a92.48,92.48,0,0,1,1.38-15.16Zm5.43-.33a4,4,0,0,0-.67,0,23.4,23.4,0,0,0-4.31.48L217.09,117l1.53-.45c.18,0,.33-.07.74-.18-1.41-.82-2.16-1.23-4.09-2.19l2.57-3.61a62,62,0,0,1,10,5.65l-3.27,3.68Z"/><path class="cls-1" d="M269.35,140.36a87.18,87.18,0,0,1-10.85.6c-6.8,0-9.14-.67-10.25-3-.6-1.23-.67-2-.9-9.74l-6.72,1.71-1-4.57c1.93-.26,5.35-.93,7.58-1.41-.11-3.75-.26-7.54-.26-8.4h5.2l.08,7.32,6.8-1.59.07-8.36h5.17l-.19,7.17c2.3-.6,3.6-.93,6.24-1.56l.67,4.53q-4.78.89-7,1.34c-.19,5.35-.26,6.5-.41,7-.41,1.82-1.49,2.31-5.61,2.6l-2-4.83a11.92,11.92,0,0,0,2.23.19c.48,0,.7-.3.74-.86l.11-3L252.33,127c.11,6.35.19,7.73.52,8.25.45.78,1.53,1,4.61,1a66.69,66.69,0,0,0,11.26-1.08Z"/><path class="cls-1" d="M296.21,129.4l-5.46.75-.67-5.91,6.13-.67Z"/><path class="cls-1" d="M320.51,135.53a25.91,25.91,0,0,1-3.35,4.39l-3-3.94a21,21,0,0,0,5.61-4.94l-5.24.37-.3-3.79,6.32-.45v-1.89l-6,.48-.33-3.94,3.64-.29a21,21,0,0,0-1-3l-1.86.18-.41-3.86,5.57-.52a19.19,19.19,0,0,0-1-3.9l4.76-.41a34.33,34.33,0,0,1,.67,3.9l4.9-.48.37,3.86-1.63.15a28,28,0,0,1-.93,3.38l2.82-.22.34,3.94-5.2.41v1.93l5.12-.37.3,3.78-5.42.38v.89c3.08,1,3.3,1.11,4.68,1.67l-2.08,4.05c-1.19-.89-1.53-1.11-2.6-1.82v7.21h-4.61Zm2.78-14.41a22.12,22.12,0,0,0,.67-3.27l-3.15.3c.18.66.33,1.15.63,2.11l.18.75.08.22Zm15.57,5.79-2.52.19c-.23,6.84-1,11.33-2.64,14.9l-4.87-1.82c2.08-3.49,2.86-7.69,2.86-15.57,0-3.42-.11-6.32-.37-10.55h4.76l0,.89a29.72,29.72,0,0,0,5.91-3.42l3.38,4.09a62.13,62.13,0,0,1-9.14,3.75c.08,1.86.08,1.93.08,3.42l11-.89.37,4.38-4.05.3v17h-4.76Z"/><path class="cls-1" d="M360.67,133.49a28.5,28.5,0,0,1-6.43,4.94l-3.64-3.53a28.17,28.17,0,0,0,11.22-8.62l-10.18.56-.15-3.38,12.93-.74v-1.27L356,122l-.15-2.82,8.54-.56v-1.19l-9.8.63-.15-3,5.31-.37a23.15,23.15,0,0,0-2-2.86l4.49-1.63a25.4,25.4,0,0,1,2.38,4.12l4.09-.3a33.76,33.76,0,0,0,2.08-4.38l5.13,1.23c-.64.92-1.27,1.78-2,2.78l5.24-.37.15,3.2-9.89.67v1.22l8.44-.56.15,2.83-8.59.56v1.3l14.2-.82.18,3.42-16.42.93-1.3,1.63,13-.89V143.6h-4.76v-1.34l-9,.37v1h-4.68Zm4.68,4.79v1.34l9-.52v-9l-9,.6V132l7.92-.56.11,2.49-8,.56v1.23l8.07-.52.11,2.52Z"/><path class="cls-1" d="M391.35,118.33c0,.89,0,1.38,0,2.23,0,2.27-.08,4.61-.23,6.39l-3.9-.11a41.51,41.51,0,0,0,.52-6.8c0-.56,0-.93,0-1.71Zm.85-8.17h4.54l-.08,7.43c.89.26,2.23.63,3.94,1.15l-1.71,3.83c-1.08-.52-1.63-.82-2.3-1.08l-.26,21.74h-4.65Zm6,12.63,8.7-.56,0-1.15-5.39.41-.26-3,5.65-.44,0-1.19-6.83.59-.26-3.19,7.09-.6,0-3.45h4.72l0,3,7.09-.59.26,3.19-7.39.64v1.22l5.8-.44.22,3-6.06.49v1.19l9.55-.6.22,3.27-22.7,1.45Zm12.64,16.72a6,6,0,0,0,1.78.22c.63,0,.82-.18.82-.85v-1.6l-6.54.3v5.72h-4.65V126.84h3.05l12.78-.78v14c0,3.2-.89,3.79-5.61,3.79Zm-3.94-10v1.34l6.54-.41v-1.37Zm6.54,5.06v-1.45l-6.54.41v1.33Z"/><path class="cls-1" d="M431.8,137.13l-4.86.3-.19-3.79,5.05-.3v-2.26l-5.65.4-.26-3.67,3.24-.26a24.42,24.42,0,0,0-1-2.49l-3.12.26-.41-3.79,6.88-.6,0-2-4.57.44-.37-3.86,4.9-.45,0-4.86H436l0,4.46,4.34-.41.37,3.79-4.75.44,0,2.08,5.58-.48.29,3.79-2.19.19c-.19.63-.33,1.07-.41,1.37-.15.48-.3.93-.44,1.38l2.52-.19.26,3.79-5,.37v2.34l4.38-.26.19,3.79-4.57.26v6.73H431.8ZM435,127.06c.11-.41.22-.81.3-1.26a10,10,0,0,0,.33-1.41l-3.6.29,0,.15.22.56c.22.6.44,1.34.59,1.86Zm22,16.57a44.58,44.58,0,0,1-5.43-5,19.34,19.34,0,0,1-3.12,3.3l-2.12-2.9v4.28H442V112.79h4.31v.93l10.33-1.22c-1.52,10.92-1.74,11.26-7.24,11.29L448,119.93a7.86,7.86,0,0,0,1.82.19c.7,0,.82-.12,1.08-1a13.11,13.11,0,0,0,.33-1.75l-5,.63v6.88l8.07-.78,2.48,1.63a39,39,0,0,1-3.08,9.22,37.46,37.46,0,0,0,6,4.23Zm-8.81-14.49a23.67,23.67,0,0,0,2.6,2.94,17.72,17.72,0,0,0,1.12-3.72l-5.58.6v1.78Zm-1.86,8.62a9.77,9.77,0,0,0,2.38-2.34c-.71-.78-1.75-2.08-2.38-2.93Z"/></svg>
